<?xml version="1.0" encoding="UTF-8"?>
<svg version="1.1" xmlns="http://www.w3.org/2000/svg" width="1200" height="1200">
<path d="M0 0 C32.01 0 64.02 0 97 0 C97 162.03 97 324.06 97 491 C92.71 491 88.42 491 84 491 C84 504.53 84 518.06 84 532 C51.99 532 19.98 532 -13 532 C-13 369.97 -13 207.94 -13 41 C-8.71 41 -4.42 41 0 41 C0 27.47 0 13.94 0 0 Z " fill="#C0E9F1" transform="translate(424,131)"/>
<path d="M0 0 C32.01 0 64.02 0 97 0 C97 161.7 97 323.4 97 490 C92.71 490 88.42 490 84 490 C84 503.86 84 517.72 84 532 C51.99 532 19.98 532 -13 532 C-13 369.97 -13 207.94 -13 41 C-8.71 41 -4.42 41 0 41 C0 27.47 0 13.94 0 0 Z " fill="#5CC1F1" transform="translate(559,228)"/>
<path d="M0 0 C31.68 0 63.36 0 96 0 C96 161.7 96 323.4 96 490 C92.04 490 88.08 490 84 490 C84 503.86 84 517.72 84 532 C51.99 532 19.98 532 -13 532 C-13 369.97 -13 207.94 -13 41 C-8.71 41 -4.42 41 0 41 C0 27.47 0 13.94 0 0 Z " fill="#191BA8" transform="translate(696,326)"/>
<path d="M0 0 C6.4381117 4.33961327 10.95854076 9.40520059 13 17 C13 18.32 13 19.64 13 21 C10.29120665 22.35439668 7.99066732 22.06501451 5 22 C4.56300781 20.98679687 4.56300781 20.98679687 4.1171875 19.953125 C0.86350574 12.87278607 -1.85759787 9.56317061 -9.3125 6.75 C-17.75201649 5.03348817 -25.60879132 5.55213398 -33.015625 10.2890625 C-38.7715035 14.81153847 -40.77816312 19.84046462 -42 27 C-42.7086544 35.87180796 -41.91418901 44.52046579 -36.5 51.875 C-31.58265797 57.03637885 -24.36732125 59.14360208 -17.375 59.4375 C-12.63847348 59.20790177 -8.35442724 57.81503851 -4 56 C-3.29488281 55.71898437 -2.58976562 55.43796875 -1.86328125 55.1484375 C1.6704666 52.97040423 2.3999086 49.03664614 3.625 45.25 C4.07875 43.8475 4.5325 42.445 5 41 C-0.94 41 -6.88 41 -13 41 C-13 38.69 -13 36.38 -13 34 C-3.76 34 5.48 34 15 34 C15 44.89 15 55.78 15 67 C12.69 67 10.38 67 8 67 C7.34 63.37 6.68 59.74 6 56 C5.175 57.0725 4.35 58.145 3.5 59.25 C-0.52882658 63.97741172 -5.20172562 66.06724187 -11 68 C-22.72127162 68.68483834 -31.93790233 68.67129095 -41.3125 60.875 C-47.02876247 55.43389923 -50.53293114 48.91195953 -51.16113281 40.96044922 C-51.64265768 16.24030627 -51.64265768 16.24030627 -42.3515625 6.22265625 C-31.51638718 -4.23660482 -13.58100596 -6.93003386 0 0 Z " fill="#000000" transform="translate(366,925)"/>
<path d="M0 0 C2.19572515 1.63511448 4.16993961 3.10801719 5.9375 5.1875 C6.2675 2.8775 6.5975 0.5675 6.9375 -1.8125 C9.9075 -1.8125 12.8775 -1.8125 15.9375 -1.8125 C16.03026991 6.44565214 16.10129982 14.70358577 16.14474869 22.96213055 C16.16560438 26.79712547 16.19388415 30.63176331 16.23925781 34.46655273 C16.28278908 38.16889253 16.30665229 41.87088934 16.31700897 45.57346535 C16.32438742 46.98446869 16.33879614 48.39545372 16.36042023 49.80631065 C16.38954479 51.78564448 16.39113467 53.76532502 16.39160156 55.74487305 C16.40048401 56.87072311 16.40936646 57.99657318 16.41851807 59.15653992 C15.82591069 62.89063936 14.58832687 64.53579264 11.9375 67.1875 C8.69998322 68.26667226 6.35998229 68.30175601 2.95703125 68.28515625 C1.79365234 68.28193359 0.63027344 68.27871094 -0.56835938 68.27539062 C-1.78330078 68.26701172 -2.99824219 68.25863281 -4.25 68.25 C-5.47654297 68.24548828 -6.70308594 68.24097656 -7.96679688 68.23632812 C-10.99874668 68.22453065 -14.03059906 68.20806921 -17.0625 68.1875 C-17.0625 65.5475 -17.0625 62.9075 -17.0625 60.1875 C-9.1425 60.1875 -1.2225 60.1875 6.9375 60.1875 C6.6075 53.9175 6.2775 47.6475 5.9375 41.1875 C4.2875 42.8375 2.6375 44.4875 0.9375 46.1875 C-5.12247354 49.56710063 -10.49931561 50.11179465 -17.203125 48.75390625 C-22.70357849 47.06388142 -26.0282138 44.02723375 -29.0625 39.1875 C-33.26714738 31.06380393 -33.43162323 21.01223936 -30.9375 12.3125 C-28.65095663 6.49997854 -25.22339689 2.52725607 -19.9375 -0.75 C-13.71762501 -2.96151111 -5.85523819 -3.23219093 0 0 Z M-20.375 11.6875 C-24.16206983 17.29797382 -23.50472368 23.65867039 -23.0625 30.1875 C-21.45601252 35.00696243 -19.21089755 37.31553246 -15.0625 40.1875 C-11.58879893 41.92435053 -7.86059188 41.64865112 -4.0625 41.1875 C1.2410228 38.48570537 5.03582298 34.89253105 6.9375 29.1875 C7.62808314 22.17977927 7.46891445 15.86847682 2.9375 10.1875 C-0.37908361 7.22356578 -3.69693763 5.96166646 -8.125 5.75 C-13.55457196 6.35328577 -16.65637398 7.66736376 -20.375 11.6875 Z " fill="#000000" transform="translate(528.0625,943.8125)"/>
<path d="M0 0 C5.09841272 4.23059779 7.93445574 8.2207838 8.6875 14.8125 C8.8421875 16.8853125 8.8421875 16.8853125 9 19 C6.03 19 3.06 19 0 19 C-0.350625 17.5975 -0.70125 16.195 -1.0625 14.75 C-2.2329192 11.20530184 -3.17354539 9.37712411 -6.4375 7.5 C-14.05872384 4.29106365 -20.5083527 4.08738065 -28.23828125 7.05078125 C-31.18184393 8.63678065 -32.72877693 10.20719411 -33.8125 13.375 C-34.05151486 16.72120808 -33.82520688 18.15267727 -32 21 C-25.22681937 24.87478211 -18.30051616 26.72876171 -10.77734375 28.62304688 C-3.5823814 30.54484541 2.25145505 33.18274143 7.5 38.5625 C9.7015966 43.60782555 9.81047683 48.57491633 9 54 C6.12097022 59.71681272 2.01205119 63.4194811 -3.875 65.8125 C-14.26324503 68.86580175 -26.46400501 68.15803402 -36 63 C-40.78523862 59.86271648 -44.08982579 56.50579626 -46 51 C-46.1875 47.125 -46.1875 47.125 -46 44 C-43.03 44 -40.06 44 -37 44 C-36.79375 45.051875 -36.5875 46.10375 -36.375 47.1875 C-35.1327652 51.5397269 -32.72090387 53.44643852 -29 56 C-24.95159752 57.99628122 -21.55679599 58.2978606 -17.0625 58.3125 C-15.87785156 58.32925781 -14.69320312 58.34601562 -13.47265625 58.36328125 C-8.84734458 57.8794185 -5.47640335 56.4271899 -2.125 53.1875 C-0.5679937 50.15998775 -0.45092799 48.36306604 -1 45 C-5.57874321 38.36871673 -13.73128754 36.97376214 -21.0625 34.78125 C-21.76528076 34.56855469 -22.46806152 34.35585938 -23.19213867 34.13671875 C-24.57194771 33.72237886 -25.95485355 33.31817119 -27.34106445 32.92578125 C-34.07519242 30.92576118 -39.04662725 27.85684851 -43 22 C-44.82178275 17.44554313 -44.52198758 12.50455243 -42.9375 7.9375 C-39.14893074 2.19354015 -34.37480526 -1.62612397 -27.71484375 -3.52734375 C-18.14397322 -5.19363919 -8.50024166 -5.06397376 0 0 Z " fill="#000000" transform="translate(686,926)"/>
<path d="M0 0 C2.97 0 5.94 0 9 0 C9 22.77 9 45.54 9 69 C6.36 69 3.72 69 1 69 C0.34 66.69 -0.32 64.38 -1 62 C-1.44730469 62.40992188 -1.89460938 62.81984375 -2.35546875 63.2421875 C-7.96674213 68.24327977 -12.03860818 70.45290311 -19.66015625 70.25 C-26.24072969 69.54690033 -30.7372131 67.11534428 -35 62 C-39.86823107 54.84443423 -40.57143238 46.20241097 -39.5 37.75 C-38.12590128 31.17519854 -35.48900082 25.87375291 -30.25 21.55859375 C-24.61960492 18.19208669 -18.36737926 18.14531822 -12 19 C-6.71368073 20.65778972 -4.36707805 22.5105626 -1 27 C-0.67 18.09 -0.34 9.18 0 0 Z M-28.3125 34.0625 C-31.20725936 39.10152555 -31.52103224 43.3160119 -31 49 C-29.34658684 54.22130472 -27.17127942 57.45441249 -23 61 C-17.97141801 62.676194 -13.65969589 62.60642735 -8.75 60.8125 C-4.58460873 58.06712848 -2.58290321 55.41562207 -0.6875 50.8125 C0.43212271 44.60368314 0.15405625 39.3081125 -2.6875 33.625 C-5.77584988 30.11930554 -8.42292695 27.4534168 -13.17578125 26.6171875 C-20.1285374 26.26662837 -24.07770635 28.45425976 -28.3125 34.0625 Z " fill="#000000" transform="translate(481,923)"/>
<path d="M0 0 C3.16126808 2.31312299 5.20320964 4.75240982 7.5625 7.875 C8.2225 4.905 8.8825 1.935 9.5625 -1.125 C11.8725 -1.125 14.1825 -1.125 16.5625 -1.125 C16.5625 21.975 16.5625 45.075 16.5625 68.875 C13.5925 68.875 10.6225 68.875 7.5625 68.875 C7.2325 59.965 6.9025 51.055 6.5625 41.875 C4.9125 43.525 3.2625 45.175 1.5625 46.875 C-3.58376928 50.34573975 -8.4208242 50.58172065 -14.4375 49.875 C-19.71184521 48.46986556 -24.66307301 45.71886279 -27.59765625 41.015625 C-32.11646761 32.39911015 -32.75731378 23.04472367 -30.3125 13.625 C-28.18473655 7.3709663 -24.90225906 3.40315062 -19.3125 -0.0625 C-13.19093624 -2.25753734 -6.10062869 -1.99656939 0 0 Z M-18.91796875 11.3984375 C-23.40383649 17.35446358 -23.29050641 23.68537453 -22.4375 30.875 C-20.83101252 35.69446243 -18.58589755 38.00303246 -14.4375 40.875 C-10.47921921 42.8541404 -5.6033774 42.53656177 -1.4296875 41.26171875 C2.7621056 39.20211478 5.06520165 36.48560267 6.90234375 32.21484375 C8.6180548 26.13371404 8.48000669 20.13342715 5.8125 14.375 C3.4366618 10.26975307 1.07441528 8.37897176 -3.4375 6.875 C-9.68229518 6.46550523 -14.28653911 6.63258642 -18.91796875 11.3984375 Z " fill="#000000" transform="translate(842.4375,943.125)"/>
<path d="M0 0 C0.97615809 0.9401707 1.94170857 1.89226267 2.875 2.875 C3.205 0.565 3.535 -1.745 3.875 -4.125 C6.845 -4.125 9.815 -4.125 12.875 -4.125 C12.875 12.375 12.875 28.875 12.875 45.875 C10.235 45.875 7.595 45.875 4.875 45.875 C4.215 43.895 3.555 41.915 2.875 39.875 C2.00875 40.65875 1.1425 41.4425 0.25 42.25 C-4.41074418 46.09402499 -8.96340263 47.33386517 -15.046875 47.11328125 C-20.88761713 46.4435721 -24.78402032 44.77899397 -28.5 40.125 C-34.13895529 32.3753743 -33.73970795 23.02731844 -33.125 13.875 C-32.0127488 7.3510392 -29.10044052 2.26652574 -24.125 -2.125 C-16.23371897 -6.58000066 -6.91483666 -5.93301401 0 0 Z M-21.125 7.875 C-23.81894264 12.33704343 -24.53413714 15.68615457 -24.5 20.875 C-24.50773437 22.050625 -24.51546875 23.22625 -24.5234375 24.4375 C-23.86250289 30.13968092 -21.48926509 34.19265133 -17.125 37.875 C-11.84276236 39.63574588 -7.74814139 39.67125804 -2.8125 37.25 C1.67734017 33.28223426 3.3342431 29.04840647 3.87109375 23.0859375 C3.8812866 17.31678186 3.07730805 11.8801404 -0.625 7.3125 C-3.87736746 4.14144173 -5.44968755 3.68989536 -9.875 3.5625 C-14.74499919 3.62574674 -17.460506 4.47863971 -21.125 7.875 Z " fill="#000000" transform="translate(420.125,946.125)"/>
<path d="M0 0 C5.76072954 4.76934818 8.50363297 10.09908694 9.6796875 17.390625 C9.6796875 19.370625 9.6796875 21.350625 9.6796875 23.390625 C-2.8603125 23.390625 -15.4003125 23.390625 -28.3203125 23.390625 C-26.85977646 31.69167017 -26.85977646 31.69167017 -22.3203125 37.390625 C-17.83958128 40.100127 -13.41659921 40.04275647 -8.3203125 39.390625 C-4.56832381 37.54873964 -2.81258764 36.42205863 -1.0078125 32.640625 C0.6796875 30.390625 0.6796875 30.390625 2.859375 30.07421875 C5.15295469 30.0777913 7.39686263 30.17526416 9.6796875 30.390625 C8.05484611 37.85474013 5.09782155 42.19139975 -1.3203125 46.390625 C-8.01502685 49.24207741 -15.73192753 49.5233834 -22.6328125 47.140625 C-30.18978008 43.81738022 -33.30892791 38.90750423 -36.3203125 31.390625 C-38.25926794 23.36819686 -37.70096536 15.92840576 -34.3203125 8.390625 C-31.38835183 3.91313467 -27.73878013 -0.40442467 -22.53125 -2.20703125 C-15.10226119 -3.55894971 -6.64660403 -4.05072006 0 0 Z M-24.3203125 8.390625 C-26.45269297 11.43602471 -28.3203125 14.60709101 -28.3203125 18.390625 C-18.7503125 18.390625 -9.1803125 18.390625 0.6796875 18.390625 C-1.50533714 9.84891508 -1.50533714 9.84891508 -7.3203125 5.390625 C-13.64429041 3.55268113 -19.17196876 4.07903239 -24.3203125 8.390625 Z " fill="#000000" transform="translate(589.3203125,944.609375)"/>
<path d="M0 0 C5.80567375 5.02184137 8.63620038 10.94430798 9.31640625 18.52734375 C9.60806357 27.94505257 8.7084539 34.62592617 2.5625 41.875 C-4.50809171 47.73841752 -10.99278537 48.74371497 -20 48 C-26.05269244 46.72003995 -30.92475257 43.63735052 -35 39 C-39.29323072 31.8760677 -39.93345393 23.5322132 -38.57421875 15.4765625 C-36.61421441 7.66059428 -32.67152662 2.39773167 -25.9375 -2 C-18.26588399 -4.67291598 -6.94478857 -4.56510578 0 0 Z M-25 7 C-30.25354271 13.49780282 -30.79960214 19.85757262 -30 28 C-28.70312273 32.46866853 -26.73280752 35.30208807 -23.375 38.5 C-17.68985645 41.02673047 -12.50743104 40.78937644 -6.625 38.9375 C-1.89562697 35.44677229 0.01393902 31.28622852 0.875 25.625 C1.29689675 19.43366523 0.54851985 13.58060782 -3.3125 8.5625 C-7.01575119 5.03149305 -9.32268767 4.1553067 -14.375 3.6875 C-18.5887772 4.05075665 -21.31669869 4.91511247 -25 7 Z " fill="#000000" transform="translate(741,945)"/>
<path d="M0 0 C2.97 0 5.94 0 9 0 C9.01458252 0.93271729 9.02916504 1.86543457 9.04418945 2.82641602 C9.10553899 6.31380095 9.17974401 9.80043451 9.26245117 13.28735352 C9.29553909 14.79148187 9.32362045 16.29572958 9.34643555 17.80004883 C9.38028166 19.97268144 9.4326062 22.14423613 9.48828125 24.31640625 C9.51446533 25.62037354 9.54064941 26.92434082 9.56762695 28.26782227 C10.15136932 33.30659671 11.28005924 37.5189399 15.25 40.9375 C19.93360221 42.74707358 23.54033101 42.50527004 28.25 40.875 C32.54828375 37.94435199 34.00849869 33.96130956 35 29 C35.14774861 26.75759423 35.24744368 24.51183457 35.31640625 22.265625 C35.37924805 20.32236328 35.37924805 20.32236328 35.44335938 18.33984375 C35.48316671 16.97656524 35.52287906 15.61328394 35.5625 14.25 C35.60572274 12.87108125 35.64933821 11.49217474 35.69335938 10.11328125 C35.79943958 6.7422881 35.9014985 3.37122174 36 0 C38.97 0 41.94 0 45 0 C45 16.5 45 33 45 50 C42.36 50 39.72 50 37 50 C36.505 46.535 36.505 46.535 36 43 C35.55269531 43.40992188 35.10539063 43.81984375 34.64453125 44.2421875 C28.76252531 49.48457233 24.54566723 51.50276554 16.56640625 51.3125 C11.02699593 50.63799037 7.28964059 48.45933015 3.625 44.3125 C-0.87709621 35.13515004 -0.24141468 25.38656204 -0.125 15.4375 C-0.11494923 13.93685494 -0.10582709 12.43620335 -0.09765625 10.93554688 C-0.07581091 7.29022719 -0.0413969 3.64515624 0 0 Z " fill="#000000" transform="translate(758,942)"/>
<path d="M0 0 C2.31 0 4.62 0 7 0 C7 4.29 7 8.58 7 13 C10.96 13 14.92 13 19 13 C19 15.31 19 17.62 19 20 C15.04 20 11.08 20 7 20 C7 31.55 7 43.1 7 55 C10.96 55 14.92 55 19 55 C19 57.64 19 60.28 19 63 C16.77144426 63.0814222 14.54202345 63.13938079 12.3125 63.1875 C10.45044922 63.23970703 10.45044922 63.23970703 8.55078125 63.29296875 C4.78333068 62.98212299 2.97205083 62.2772857 0 60 C-1.63945963 56.72108075 -1.12030178 53.09386466 -1.09765625 49.4921875 C-1.0962413 48.65156769 -1.09482635 47.81094788 -1.09336853 46.94485474 C-1.08776237 44.25486725 -1.07520886 41.56496241 -1.0625 38.875 C-1.05748579 37.05338662 -1.05292275 35.23177193 -1.04882812 33.41015625 C-1.03779094 28.94007223 -1.0205222 24.47005014 -1 20 C-3.64 20 -6.28 20 -9 20 C-9 17.69 -9 15.38 -9 13 C-6.69 12.34 -4.38 11.68 -2 11 C-1.34 7.37 -0.68 3.74 0 0 Z " fill="#000000" transform="translate(613,929)"/>
</svg>
